<svg xmlns="http://www.w3.org/2000/svg" width="230" height="170" baseProfile="tiny-ps" version="1.2"><g id="SYMBOL"><g id="Ribbon"><path id="Layer 9" d="M144 47c0-8.93 7.62-9 7.62-9H205l-5 9h-56Z" class="shp0" style="fill:#8fbce7"/><path id="Layer 10" d="M189.02 123.33c2.23 2.61 2.56 8.58-3.05 8.58C183.12 131.91 146 90 146 90s-15.07-17.4-17.47-20.34c-2.93-3.6-4.38-8.39-4.56-10.63-.26-3.15 2.91-10.06 2.47-8.21-.08.34 1.48 5.12 4.84 8.93 1.56 1.78 57.74 63.58 57.74 63.58Z" class="shp0" style="fill:#8fbce7"/></g><g id="S"><path id="Layer 8" d="M185.15 137.93c5.81.12 9.57-7.34 9.83-8.92.42-2.58.16-6.52-2.04-8.94a7555.898 7555.898 0 0 0-58.14-63.05c-10.36-11.26-1.61-23.14-1.61-23.14 6.37-8.91 21.41-9.66 21.41-9.66l58.43-.19-5.03 8.94-57.03.04c-2.56.09-9.51 3.39-10.94 7.18-.87 2.32-1.59 6.43.31 10.25 2.14 4.27 59.13 61.44 61.53 68 1.31 3.56 2.4 5.57 1.82 11.07-.74 6.95-3.86 11.27-6.17 13.61-.8.8-4.26 3.76-8.86 3.76-2.28 0-116.66.12-116.66.12l-.02-8.98s109.05-.18 113.17-.09Z" style="fill:#0d4377"/></g><g id="A"><path id="Shape 1" d="M85.84 25.25h47L63 147H16L85.84 25.25Z" style="fill:#11467a"/><path id="Shape 2" d="m82 86 53.62-.06L147 97H82V86Z" style="fill:#0d4477"/></g></g></svg>
