<svg version="1.2" baseProfile="tiny-ps" xmlns="http://www.w3.org/2000/svg" viewBox="0 0 770 170" width="770" height="170">
	<title>AS_Logo</title>
<!--	<style>
		tspan { white-space:pre }
		.shp0 { fill: #306195 } 
	</style>-->
	<g id="LOGO_NAVY">
		<g id="SYMBOL">
			<g id="Ribbon">
				<path id="Layer 9" class="shp0" d="M151 47C151 38.07 158.62 38 158.62 38L212 38L207 47L151 47Z" fill="#306195"/>
				<path id="Layer 10" class="shp0" d="M196.02 123.33C198.25 125.94 198.58 131.91 192.97 131.91C190.12 131.91 153 90 153 90C153 90 137.93 72.6 135.53 69.66C132.6 66.06 131.15 61.27 130.97 59.03C130.71 55.88 133.88 48.97 133.44 50.82C133.36 51.16 134.92 55.94 138.28 59.75C139.84 61.53 196.02 123.33 196.02 123.33Z" fill="#306195"/>
			</g>
			<g id="S">
				<path id="Layer 8" class="shp0" d="M192.15 137.93C197.96 138.05 201.72 130.59 201.98 129.01C202.4 126.43 202.14 122.49 199.94 120.07C170.06 87.26 141.8 57.02 141.8 57.02C131.44 45.76 140.19 33.88 140.19 33.88C146.56 24.97 161.6 24.22 161.6 24.22L220.03 24.03L215 32.97L157.97 33.01C155.41 33.1 148.46 36.4 147.03 40.19C146.16 42.51 145.44 46.62 147.34 50.44C149.48 54.71 206.47 111.88 208.87 118.44C210.18 122 211.27 124.01 210.69 129.51C209.95 136.46 206.83 140.78 204.52 143.12C203.72 143.92 200.26 146.88 195.66 146.88C193.38 146.88 79 147 79 147L78.98 138.02C78.98 138.02 188.03 137.84 192.15 137.93Z" fill="#306195"/>
			</g>
			<g id="A">
				<path id="Shape 1" class="shp0" d="M92.84 25.25L139.84 25.25L70 147L23 147L92.84 25.25Z" fill="#306195"/>
				<path id="Shape 2" class="shp0" d="M89 86L142.62 85.94L154 97L89 97L89 86Z" fill="#306195"/>
			</g>
		</g>
		<g id="TEXT">
			<path id="Stocktaking" fill="#306195" aria-label="Stocktaking"  d="M233.48 116.28L233.48 119.69Q233.48 123.36 234.86 125.75Q236.24 128.07 238.62 129.35Q241.06 130.58 244.15 131.03Q247.25 131.48 251.2 131.48L269.13 131.48Q273.48 131.48 276.64 131.16Q279.87 130.77 282.51 129.55Q285.15 128.32 286.73 125.81Q288.31 123.23 288.31 119.18L288.31 116.15Q288.31 110.16 284.03 107.46Q279.81 104.69 270.45 104.69L251.34 104.69Q247.51 104.69 245.21 104.3Q242.9 103.91 241.65 103.08Q240.4 102.24 239.94 100.89Q239.47 99.47 239.47 97.28Q239.47 94.38 240.33 92.77Q241.25 91.1 243.16 90.32Q245.08 89.49 248.04 89.23Q251.07 88.97 256.35 88.97L263.2 88.97Q269.79 88.97 273.22 89.36Q276.71 89.68 278.36 90.58Q280.07 91.42 280.53 93.03Q280.99 94.57 281.06 97.73L287.12 97.73L287.12 96.12Q287.12 92.9 286.2 90.65Q285.28 88.33 283.04 86.85Q280.86 85.3 276.91 84.59Q273.02 83.82 267.09 83.82L253.18 83.82Q242.57 83.82 237.96 86.52Q233.41 89.23 233.41 96.83Q233.41 101.47 234.73 104.17Q236.05 106.88 239.01 108.23Q241.98 109.52 246.66 109.97Q251.34 110.35 259.57 110.35L271.83 110.35Q277.9 110.35 280.07 111.83Q282.25 113.32 282.25 117.7Q282.25 120.27 281.65 121.95Q281.06 123.56 279.68 124.52Q278.29 125.49 275.99 125.94Q273.68 126.33 270.12 126.33L250.08 126.33Q244.22 126.33 241.85 124.72Q239.54 123.11 239.54 119.56L239.54 116.28L233.48 116.28ZM301.75 102.62L301.75 121.11Q301.75 123.3 302.35 125.1Q302.94 126.91 304.39 128.39Q305.91 129.8 308.48 130.64Q311.05 131.48 314.87 131.48L317.97 131.48Q322.38 131.48 325.02 130.64Q327.72 129.74 328.91 128.19Q330.16 126.58 330.49 124.65Q330.88 122.66 330.88 119.69L330.88 116.09L326.27 116.09L326.27 118.53Q326.27 121.24 325.94 122.85Q325.61 124.46 324.69 125.36Q323.83 126.26 322.12 126.65Q320.47 126.97 317.57 126.97L315.79 126.97Q311.11 126.97 309.27 125.3Q307.42 123.56 307.42 118.98L307.42 102.62L329.9 102.62L329.9 98.12L307.42 98.12L307.42 90.32L301.75 90.32L301.75 98.12L294.37 98.12L294.37 102.62L301.75 102.62ZM336.68 110.93L336.68 118.15Q336.68 122.08 338 124.72Q339.39 127.36 341.82 128.84Q344.33 130.25 347.62 130.9Q350.92 131.48 355.27 131.48L363.38 131.48Q367.72 131.48 371.02 130.9Q374.32 130.25 376.75 128.84Q379.26 127.36 380.58 124.72Q381.96 122.08 381.96 118.15L381.96 110.93Q381.96 107 380.58 104.36Q379.26 101.72 376.75 100.31Q374.32 98.82 371.02 98.25Q367.72 97.6 363.38 97.6L355.27 97.6Q350.92 97.6 347.62 98.25Q344.33 98.82 341.82 100.31Q339.39 101.72 338 104.36Q336.68 107 336.68 110.93ZM376.29 111.26L376.29 117.82Q376.29 120.59 375.5 122.46Q374.71 124.27 373.19 125.23Q371.74 126.2 369.77 126.58Q367.79 126.97 365.09 126.97L353.56 126.97Q350.92 126.97 348.88 126.58Q346.9 126.2 345.38 125.23Q343.93 124.27 343.14 122.46Q342.35 120.59 342.35 117.82L342.35 111.26Q342.35 108.49 343.14 106.68Q343.93 104.81 345.38 103.85Q346.9 102.88 348.88 102.5Q350.92 102.11 353.56 102.11L365.09 102.11Q367.79 102.11 369.77 102.5Q371.74 102.88 373.19 103.85Q374.71 104.81 375.5 106.68Q376.29 108.49 376.29 111.26ZM390 110.87L390 118.21Q390 122.4 391.38 125.1Q392.77 127.81 394.94 129.22Q397.12 130.58 399.43 131.03Q401.8 131.48 404.1 131.48L416.89 131.48Q424.8 131.48 428.23 128.84Q431.65 126.2 431.65 119.95L431.65 118.98L426.38 118.98L426.38 120.08Q426.38 123.81 423.74 125.42Q421.11 126.97 416.69 126.97L407.14 126.97Q401.47 126.97 398.57 125.04Q395.67 123.11 395.67 117.95L395.67 111.06Q395.67 108.1 396.46 106.3Q397.32 104.49 398.7 103.59Q400.15 102.69 401.93 102.43Q403.71 102.11 406.02 102.11L416.43 102.11Q421.11 102.11 423.41 103.59Q425.79 105.01 425.79 108.87L425.79 109.64L431.06 109.64L431.06 108.74Q431.06 103.33 427.5 100.5Q424.01 97.6 416.36 97.6L406.87 97.6Q403.25 97.6 400.35 98.05Q397.51 98.5 395.14 99.86Q392.77 101.21 391.38 103.91Q390 106.62 390 110.87ZM440.35 84.33L440.35 130.96L446.02 130.96L446.02 115.06L448.46 115.06L472.78 130.96L481.61 130.96L481.74 130.83L454.13 112.8L477.32 98.25L477.19 98.12L468.36 98.12L448.79 110.55L446.02 110.55L446.02 84.33L440.35 84.33ZM490.57 102.62L490.57 121.11Q490.57 123.3 491.16 125.1Q491.76 126.91 493.21 128.39Q494.72 129.8 497.29 130.64Q499.86 131.48 503.69 131.48L506.78 131.48Q511.2 131.48 513.84 130.64Q516.54 129.74 517.72 128.19Q518.98 126.58 519.31 124.65Q519.7 122.66 519.7 119.69L519.7 116.09L515.09 116.09L515.09 118.53Q515.09 121.24 514.76 122.85Q514.43 124.46 513.51 125.36Q512.65 126.26 510.94 126.65Q509.29 126.97 506.39 126.97L504.61 126.97Q499.93 126.97 498.08 125.3Q496.24 123.56 496.24 118.98L496.24 102.62L518.71 102.62L518.71 98.12L496.24 98.12L496.24 90.32L490.57 90.32L490.57 98.12L483.19 98.12L483.19 102.62L490.57 102.62ZM561.35 127.68L561.35 130.96L567.02 130.96L567.02 108.94Q567.02 105.39 565.77 103.14Q564.52 100.82 562.21 99.66Q559.97 98.44 556.81 98.05Q553.71 97.6 549.36 97.6L540.4 97.6Q532.82 97.6 529.59 99.6Q526.36 101.53 526.36 106.04L526.36 107.65L532.03 107.65L532.03 106.49Q532.03 104.23 533.74 103.2Q535.52 102.11 540.53 102.11L548.83 102.11Q555.88 102.11 558.59 103.4Q561.35 104.62 561.35 108.81L561.35 114.99L561.22 114.99Q559.77 112.61 557.27 111.83Q554.83 111.06 549.23 111.06L540.13 111.06Q531.89 111.06 528.8 112.41Q526.82 113.32 525.83 115.06Q524.84 116.73 524.84 119.43L524.84 121.62Q524.84 126.58 527.15 129.03Q529.52 131.48 535.65 131.48L549.23 131.48Q552.52 131.48 554.57 131.35Q556.61 131.16 557.86 130.71Q559.18 130.25 559.9 129.55Q560.63 128.84 561.22 127.68L561.35 127.68ZM561.35 120.66L561.35 122.14Q561.35 125.1 558.26 126.07Q555.22 126.97 547.12 126.97L539.6 126.97Q534.07 126.97 532.29 125.81Q530.51 124.65 530.51 121.75L530.51 120.72Q530.51 117.63 532.42 116.6Q534.33 115.57 539.87 115.57L548.57 115.57Q555.69 115.57 558.52 116.54Q561.35 117.44 561.35 120.66ZM577.04 84.33L577.04 130.96L582.71 130.96L582.71 115.06L585.15 115.06L609.46 130.96L618.3 130.96L618.43 130.83L590.81 112.8L614.01 98.25L613.88 98.12L605.05 98.12L585.47 110.55L582.71 110.55L582.71 84.33L577.04 84.33ZM625.02 98.12L625.02 130.96L630.69 130.96L630.69 98.12L625.02 98.12ZM625.02 84.33L625.02 90.39L630.69 90.39L630.69 84.33L625.02 84.33ZM642.15 98.12L642.15 130.96L647.82 130.96L647.82 112.29Q647.82 109.26 648.55 107.39Q649.27 105.46 650.98 104.3Q652.76 103.14 655.93 102.62Q659.09 102.11 664.1 102.11L665.55 102.11Q669.57 102.11 672.01 102.69Q674.51 103.2 675.76 104.23Q677.08 105.27 677.48 106.68Q677.94 108.03 677.94 110.1L677.94 130.96L683.61 130.96L683.61 108.74Q683.61 106.42 682.88 104.43Q682.16 102.43 680.51 100.89Q678.93 99.34 676.16 98.5Q673.46 97.6 669.64 97.6L661.13 97.6Q655.4 97.6 652.24 98.89Q649.07 100.18 647.56 103.78L647.43 103.78L647.43 98.12L642.15 98.12ZM730.07 112.16L730.07 116.15Q730.07 120.53 727.5 122.78Q724.93 124.97 719 124.97L708.06 124.97Q702.79 124.97 700.61 122.85Q698.44 120.72 698.44 115.12L698.44 109.07Q698.5 105.27 701.07 103.72Q703.71 102.11 708.45 102.11L719.99 102.11Q725.52 102.11 727.76 104.62Q730.07 107.13 730.07 112.16ZM735.74 130.9L735.74 98.12L730.47 98.12L730.47 103.98L730.33 103.98Q729.15 100.31 726.45 98.95Q723.74 97.6 719.99 97.6L707.93 97.6Q705.09 97.6 702.52 98.05Q700.02 98.5 697.78 99.92Q695.54 101.27 694.15 103.98Q692.77 106.62 692.77 110.87L692.77 116.34Q692.77 122.72 696.33 126.13Q699.89 129.48 706.87 129.48L718.54 129.48Q724.07 129.48 726.51 128.26Q728.95 126.97 729.94 124.39L730.07 124.39L730.07 129.29Q730.07 132.57 729.21 134.44Q728.36 136.24 726.51 137.08Q724.73 137.92 722.1 138.11Q719.46 138.31 714.38 138.31L708.85 138.31Q704.43 138.31 701.73 137.08Q699.09 135.79 699.09 132.83L699.09 131.93L693.82 131.93L693.82 133.02Q693.82 134.76 694.48 136.44Q695.14 138.11 696.59 139.59Q698.11 141.01 700.68 141.91Q703.31 142.81 707 142.81L719.79 142.81Q722.75 142.81 725.46 142.3Q728.22 141.78 730.53 140.5Q732.9 139.14 734.29 136.82Q735.74 134.44 735.74 130.9Z" />
			<path id="Associated" fill="#306195" aria-label="Associated"  d="M232.17 73L239.91 73L246.18 62.56L286.63 62.56L292.9 73L300.64 73L270.66 23.62L262.15 23.62ZM283.35 57.11L249.46 57.11L266.4 29.07ZM306.01 63.11C306.01 73.55 314.31 73.55 323.17 73.55L334.19 73.55C341.51 73.55 350.71 73.2 350.71 63.45L350.71 63.31C350.71 53.9 344.58 53.01 335.58 53.01L319.75 53.01C313.47 53.01 312.5 51.38 312.5 48.51L312.5 47.22C312.5 43.26 314.38 42.44 322.96 42.44L333.42 42.44C339.97 42.44 343.6 42.58 343.6 47.9L343.6 48.24L349.18 48.24L349.18 46.4C349.18 41.49 347.3 37.67 333.77 37.67L324.56 37.67C309.78 37.67 306.5 40.81 306.5 46.47L306.5 48.51C306.5 55.13 309.64 57.79 318.08 57.79L336.56 57.79C343.74 57.79 344.72 59.63 344.72 62.97L344.72 63.25C344.72 68.43 341.86 68.77 332.86 68.77L320.03 68.77C313.89 68.77 311.59 67 311.59 62.7L311.59 61L306.01 61ZM359.36 63.11C359.36 73.55 367.66 73.55 376.51 73.55L387.53 73.55C394.85 73.55 404.06 73.2 404.06 63.45L404.06 63.31C404.06 53.9 397.92 53.01 388.93 53.01L373.1 53.01C366.82 53.01 365.84 51.38 365.84 48.51L365.84 47.22C365.84 43.26 367.73 42.44 376.3 42.44L386.76 42.44C393.32 42.44 396.95 42.58 396.95 47.9L396.95 48.24L402.52 48.24L402.52 46.4C402.52 41.49 400.64 37.67 387.11 37.67L377.91 37.67C363.12 37.67 359.85 40.81 359.85 46.47L359.85 48.51C359.85 55.13 362.99 57.79 371.42 57.79L389.9 57.79C397.08 57.79 398.06 59.63 398.06 62.97L398.06 63.25C398.06 68.43 395.2 68.77 386.21 68.77L373.38 68.77C367.24 68.77 364.94 67 364.94 62.7L364.94 61L359.36 61ZM412.84 59.43C412.84 70.89 421.14 73.55 432.51 73.55L441.09 73.55C452.45 73.55 460.75 70.89 460.75 59.43L460.75 51.79C460.75 40.33 452.45 37.67 441.09 37.67L432.51 37.67C421.14 37.67 412.84 40.33 412.84 51.79ZM454.75 59.09C454.75 67.2 449.87 68.77 442.9 68.77L430.7 68.77C423.72 68.77 418.84 67.2 418.84 59.09L418.84 52.13C418.84 44.01 423.72 42.44 430.7 42.44L442.9 42.44C449.87 42.44 454.75 44.01 454.75 52.13ZM469.26 59.49C469.26 72.11 478.81 73.55 484.18 73.55L497.71 73.55C508.87 73.55 513.33 70.14 513.33 61.34L513.33 60.31L507.75 60.31L507.75 61.47C507.75 67.13 503.08 68.77 497.5 68.77L487.39 68.77C480.14 68.77 475.26 67 475.26 59.22L475.26 51.92C475.26 43.26 480.56 42.44 486.2 42.44L497.22 42.44C503.22 42.44 507.12 43.81 507.12 49.6L507.12 50.42L512.7 50.42L512.7 49.47C512.7 42.1 508.31 37.67 497.15 37.67L487.11 37.67C478.32 37.67 469.26 39.1 469.26 51.72ZM523.37 73L529.37 73L529.37 38.21L523.37 38.21ZM523.37 30.03L529.37 30.03L529.37 23.62L523.37 23.62ZM578.25 73L584.25 73L584.25 49.67C584.25 39.3 576.72 37.67 565.56 37.67L556.08 37.67C545.34 37.67 541.22 40.26 541.22 46.6L541.22 48.31L547.22 48.31L547.22 47.08C547.22 44.22 548.68 42.44 556.22 42.44L565 42.44C574.21 42.44 578.25 43.26 578.25 49.54L578.25 56.08L578.11 56.08C576.02 52.74 573.23 51.92 565.42 51.92L555.8 51.92C545.34 51.92 539.62 52.88 539.62 60.79L539.62 63.11C539.62 69.66 541.99 73.55 551.06 73.55L565.42 73.55C574.63 73.55 576.51 72.66 578.11 69.52L578.25 69.52ZM578.25 63.66C578.25 68.02 574.07 68.77 563.19 68.77L555.24 68.77C547.01 68.77 545.62 67.13 545.62 63.25L545.62 62.15C545.62 57.79 547.78 56.7 555.52 56.7L564.72 56.7C573.93 56.7 578.25 57.31 578.25 62.09ZM598.06 62.56C598.06 68.23 600.71 73.55 611.93 73.55L615.21 73.55C628.18 73.55 628.88 68.02 628.88 61.06L628.88 57.24L624 57.24L624 59.84C624 67.13 622.74 68.77 614.79 68.77L612.91 68.77C606.35 68.77 604.05 66.79 604.05 60.31L604.05 42.99L627.83 42.99L627.83 38.21L604.05 38.21L604.05 29.96L598.06 29.96L598.06 38.21L590.25 38.21L590.25 42.99L598.06 42.99ZM674.13 51.86L640.59 51.86C641.15 43.94 643.38 42.44 652.87 42.44L661.65 42.44C671.41 42.44 674.13 45.99 674.13 49.54ZM634.6 59.29C634.6 72.11 643.52 73.55 651.33 73.55L662.21 73.55C673.37 73.55 680.13 71.16 680.13 63.18L680.13 62.5L674.13 62.5C673.79 67.82 670.72 68.77 663.19 68.77L654.96 68.77C644.5 68.77 640.59 66.72 640.59 58.81L640.59 56.63L680.13 56.63L680.13 52.74C680.13 40.33 672.39 37.67 661.65 37.67L652.03 37.67C643.52 37.67 634.6 39.1 634.6 51.72ZM693.94 51.99C693.94 43.94 698.05 42.44 706.28 42.44L714.37 42.44C722.46 42.44 727.41 43.81 727.41 52.13L727.41 58.74C727.41 65.09 724.55 68.77 715.63 68.77L705.86 68.77C696.1 68.77 693.94 65.57 693.94 58.81ZM733.41 23.62L727.41 23.62L727.41 42.85L727.27 42.85C726.02 39.24 722.74 37.67 715.9 37.67L706.77 37.67C692.33 37.67 687.94 41.62 687.94 52.74L687.94 58.88C687.94 70.89 695.54 73.55 706.42 73.55L714.79 73.55C721.06 73.55 725.95 71.7 727.69 67.48L727.83 67.48L727.83 73L733.41 73Z" />
		</g>
	</g>
</svg>
