<svg version="1.2" baseProfile="tiny-ps" xmlns="http://www.w3.org/2000/svg" width="770" height="170">
<!--    <style>
        .shp0{fill:#8fbce7}.shp1{fill:#0d4377}.shp2{fill:#11467a}.shp3{fill:#0d4477}
    </style>-->
    <g id="SYMBOL">
        <g id="Ribbon">
            <path id="Layer 9" class="shp0" d="M151 47c0-8.93 7.62-9 7.62-9H212l-5 9h-56Z" fill="#8fbce7"/>
            <path id="Layer 10" class="shp0" d="M196.02 123.33c2.23 2.61 2.56 8.58-3.05 8.58C190.12 131.91 153 90 153 90s-15.07-17.4-17.47-20.34c-2.93-3.6-4.38-8.39-4.56-10.63-.26-3.15 2.91-10.06 2.47-8.21-.08.34 1.48 5.12 4.84 8.93 1.56 1.78 57.74 63.58 57.74 63.58Z" fill="#8fbce7"/>
        </g>
        <g id="S">
            <path id="Layer 8" class="shp1" d="M192.15 137.93c5.81.12 9.57-7.34 9.83-8.92.42-2.58.16-6.52-2.04-8.94a7555.898 7555.898 0 0 0-58.14-63.05c-10.36-11.26-1.61-23.14-1.61-23.14 6.37-8.91 21.41-9.66 21.41-9.66l58.43-.19-5.03 8.94-57.03.04c-2.56.09-9.51 3.39-10.94 7.18-.87 2.32-1.59 6.43.31 10.25 2.14 4.27 59.13 61.44 61.53 68 1.31 3.56 2.4 5.57 1.82 11.07-.74 6.95-3.86 11.27-6.17 13.61-.8.8-4.26 3.76-8.86 3.76-2.28 0-116.66.12-116.66.12l-.02-8.98s109.05-.18 113.17-.09Z" fill="#8fbce7"/>
        </g>
        <g id="A">
            <path id="Shape 1" class="shp2" d="M92.84 25.25h47L70 147H23L92.84 25.25Z" fill="#8fbce7"/>
            <path id="Shape 2" class="shp3" d="m89 86 53.62-.06L154 97H89V86Z" fill="#8fbce7"/>
        </g>
    </g>
    <g id="LOGO_LIGHT">
        <path class="shp0" d="M151 47c0-8.93 7.62-9 7.62-9H212l-5 9h-56ZM196.02 123.33c2.23 2.61 2.56 8.58-3.05 8.58C190.12 131.91 153 90 153 90s-15.07-17.4-17.47-20.34c-2.93-3.6-4.38-8.39-4.56-10.63-.26-3.15 2.91-10.06 2.47-8.21-.08.34 1.48 5.12 4.84 8.93 1.56 1.78 57.74 63.58 57.74 63.58Z" fill="#8fbce7"/>
        <path class="shp1" d="M192.15 137.93c5.81.12 9.57-7.34 9.83-8.92.42-2.58.16-6.52-2.04-8.94a7555.898 7555.898 0 0 0-58.14-63.05c-10.36-11.26-1.61-23.14-1.61-23.14 6.37-8.91 21.41-9.66 21.41-9.66l58.43-.19-5.03 8.94-57.03.04c-2.56.09-9.51 3.39-10.94 7.18-.87 2.32-1.59 6.43.31 10.25 2.14 4.27 59.13 61.44 61.53 68 1.31 3.56 2.4 5.57 1.82 11.07-.74 6.95-3.86 11.27-6.17 13.61-.8.8-4.26 3.76-8.86 3.76-2.28 0-116.66.12-116.66.12l-.02-8.98s109.05-.18 113.17-.09Z" fill="#0d4377"/>
        <path class="shp2" d="M92.84 25.25h47L70 147H23L92.84 25.25Z" fill="#0d4377"/>
        <path class="shp3" d="m89 86 53.62-.06L154 97H89V86Z" fill="#0d4377"/>
        <g id="TEXT">
            <path id="Stocktaking" fill="#8fbce7" aria-label="Stocktaking" d="M233.48 116.28v3.41q0 3.67 1.38 6.06 1.38 2.32 3.76 3.6 2.44 1.23 5.53 1.68 3.1.45 7.05.45h17.93q4.35 0 7.51-.32 3.23-.39 5.87-1.61 2.64-1.23 4.22-3.74 1.58-2.58 1.58-6.63v-3.03q0-5.99-4.28-8.69-4.22-2.77-13.58-2.77h-19.11q-3.83 0-6.13-.39-2.31-.39-3.56-1.22-1.25-.84-1.71-2.19-.47-1.42-.47-3.61 0-2.9.86-4.51.92-1.67 2.83-2.45 1.92-.83 4.88-1.09 3.03-.26 8.31-.26h6.85q6.59 0 10.02.39 3.49.32 5.14 1.22 1.71.84 2.17 2.45.46 1.54.53 4.7h6.06v-1.61q0-3.22-.92-5.47-.92-2.32-3.16-3.8-2.18-1.55-6.13-2.26-3.89-.77-9.82-.77h-13.91q-10.61 0-15.22 2.7-4.55 2.71-4.55 10.31 0 4.64 1.32 7.34 1.32 2.71 4.28 4.06 2.97 1.29 7.65 1.74 4.68.38 12.91.38h12.26q6.07 0 8.24 1.48 2.18 1.49 2.18 5.87 0 2.57-.6 4.25-.59 1.61-1.97 2.57-1.39.97-3.69 1.42-2.31.39-5.87.39h-20.04q-5.86 0-8.23-1.61-2.31-1.61-2.31-5.16v-3.28h-6.06Zm68.27-13.66v18.49q0 2.19.6 3.99.59 1.81 2.04 3.29 1.52 1.41 4.09 2.25 2.57.84 6.39.84h3.1q4.41 0 7.05-.84 2.7-.9 3.89-2.45 1.25-1.61 1.58-3.54.39-1.99.39-4.96v-3.6h-4.61v2.44q0 2.71-.33 4.32-.33 1.61-1.25 2.51-.86.9-2.57 1.29-1.65.32-4.55.32h-1.78q-4.68 0-6.52-1.67-1.85-1.74-1.85-6.32v-16.36h22.48v-4.5h-22.48v-7.8h-5.67v7.8h-7.38v4.5h7.38Zm34.93 8.31v7.22q0 3.93 1.32 6.57 1.39 2.64 3.82 4.12 2.51 1.41 5.8 2.06 3.3.58 7.65.58h8.11q4.34 0 7.64-.58 3.3-.65 5.73-2.06 2.51-1.48 3.83-4.12 1.38-2.64 1.38-6.57v-7.22q0-3.93-1.38-6.57-1.32-2.64-3.83-4.05-2.43-1.49-5.73-2.06-3.3-.65-7.64-.65h-8.11q-4.35 0-7.65.65-3.29.57-5.8 2.06-2.43 1.41-3.82 4.05-1.32 2.64-1.32 6.57Zm39.61.33v6.56q0 2.77-.79 4.64-.79 1.81-2.31 2.77-1.45.97-3.42 1.35-1.98.39-4.68.39h-11.53q-2.64 0-4.68-.39-1.98-.38-3.5-1.35-1.45-.96-2.24-2.77-.79-1.87-.79-4.64v-6.56q0-2.77.79-4.58.79-1.87 2.24-2.83 1.52-.97 3.5-1.35 2.04-.39 4.68-.39h11.53q2.7 0 4.68.39 1.97.38 3.42 1.35 1.52.96 2.31 2.83.79 1.81.79 4.58Zm13.71-.39v7.34q0 4.19 1.38 6.89 1.39 2.71 3.56 4.12 2.18 1.36 4.49 1.81 2.37.45 4.67.45h12.79q7.91 0 11.34-2.64 3.42-2.64 3.42-8.89v-.97h-5.27v1.1q0 3.73-2.64 5.34-2.63 1.55-7.05 1.55h-9.55q-5.67 0-8.57-1.93-2.9-1.93-2.9-7.09v-6.89q0-2.96.79-4.76.86-1.81 2.24-2.71 1.45-.9 3.23-1.16 1.78-.32 4.09-.32h10.41q4.68 0 6.98 1.48 2.38 1.42 2.38 5.28v.77h5.27v-.9q0-5.41-3.56-8.24-3.49-2.9-11.14-2.9h-9.49q-3.62 0-6.52.45-2.84.45-5.21 1.81-2.37 1.35-3.76 4.05-1.38 2.71-1.38 6.96Zm50.35-26.54v46.63h5.67v-15.9h2.44l24.32 15.9h8.83l.13-.13-27.61-18.03 23.19-14.55-.13-.13h-8.83l-19.57 12.43h-2.77V84.33h-5.67Zm50.22 18.29v18.49q0 2.19.59 3.99.6 1.81 2.05 3.29 1.51 1.41 4.08 2.25 2.57.84 6.4.84h3.09q4.42 0 7.06-.84 2.7-.9 3.88-2.45 1.26-1.61 1.59-3.54.39-1.99.39-4.96v-3.6h-4.61v2.44q0 2.71-.33 4.32-.33 1.61-1.25 2.51-.86.9-2.57 1.29-1.65.32-4.55.32h-1.78q-4.68 0-6.53-1.67-1.84-1.74-1.84-6.32v-16.36h22.47v-4.5h-22.47v-7.8h-5.67v7.8h-7.38v4.5h7.38Zm70.78 25.06v3.28h5.67v-22.02q0-3.55-1.25-5.8-1.25-2.32-3.56-3.48-2.24-1.22-5.4-1.61-3.1-.45-7.45-.45h-8.96q-7.58 0-10.81 2-3.23 1.93-3.23 6.44v1.61h5.67v-1.16q0-2.26 1.71-3.29 1.78-1.09 6.79-1.09h8.3q7.05 0 9.76 1.29 2.76 1.22 2.76 5.41v6.18h-.13q-1.45-2.38-3.95-3.16-2.44-.77-8.04-.77h-9.1q-8.24 0-11.33 1.35-1.98.91-2.97 2.65-.99 1.67-.99 4.37v2.19q0 4.96 2.31 7.41 2.37 2.45 8.5 2.45h13.58q3.29 0 5.34-.13 2.04-.19 3.29-.64 1.32-.46 2.04-1.16.73-.71 1.32-1.87h.13Zm0-7.02v1.48q0 2.96-3.09 3.93-3.04.9-11.14.9h-7.52q-5.53 0-7.31-1.16-1.78-1.16-1.78-4.06v-1.03q0-3.09 1.91-4.12 1.91-1.03 7.45-1.03h8.7q7.12 0 9.95.97 2.83.9 2.83 4.12Zm15.69-36.33v46.63h5.67v-15.9h2.44l24.31 15.9h8.84l.13-.13-27.62-18.03 23.2-14.55-.13-.13h-8.83l-19.58 12.43h-2.76V84.33h-5.67Zm47.98 13.79v32.84h5.67V98.12h-5.67Zm0-13.79v6.06h5.67v-6.06h-5.67Zm17.13 13.79v32.84h5.67v-18.67q0-3.03.73-4.9.72-1.93 2.43-3.09 1.78-1.16 4.95-1.68 3.16-.51 8.17-.51h1.45q4.02 0 6.46.58 2.5.51 3.75 1.54 1.32 1.04 1.72 2.45.46 1.35.46 3.42v20.86h5.67v-22.22q0-2.32-.73-4.31-.72-2-2.37-3.54-1.58-1.55-4.35-2.39-2.7-.9-6.52-.9h-8.51q-5.73 0-8.89 1.29-3.17 1.29-4.68 4.89h-.13v-5.66h-5.28Zm87.92 14.04v3.99q0 4.38-2.57 6.63-2.57 2.19-8.5 2.19h-10.94q-5.27 0-7.45-2.12-2.17-2.13-2.17-7.73v-6.05q.06-3.8 2.63-5.35 2.64-1.61 7.38-1.61h11.54q5.53 0 7.77 2.51 2.31 2.51 2.31 7.54Zm5.67 18.74V98.12h-5.27v5.86h-.14q-1.18-3.67-3.88-5.03-2.71-1.35-6.46-1.35h-12.06q-2.84 0-5.41.45-2.5.45-4.74 1.87-2.24 1.35-3.63 4.06-1.38 2.64-1.38 6.89v5.47q0 6.38 3.56 9.79 3.56 3.35 10.54 3.35h11.67q5.53 0 7.97-1.22 2.44-1.29 3.43-3.87h.13v4.9q0 3.28-.86 5.15-.85 1.8-2.7 2.64-1.78.84-4.41 1.03-2.64.2-7.72.2h-5.53q-4.42 0-7.12-1.23-2.64-1.29-2.64-4.25v-.9h-5.27v1.09q0 1.74.66 3.42.66 1.67 2.11 3.15 1.52 1.42 4.09 2.32 2.63.9 6.32.9h12.79q2.96 0 5.67-.51 2.76-.52 5.07-1.8 2.37-1.36 3.76-3.68 1.45-2.38 1.45-5.92Z"/>
            <path id="Associated" fill="#0d4377" aria-label="Associated" d="M232.17 73h7.74l6.27-10.44h40.45L292.9 73h7.74l-29.98-49.38h-8.51Zm51.18-15.89h-33.89l16.94-28.04Zm22.66 6c0 10.44 8.3 10.44 17.16 10.44h11.02c7.32 0 16.52-.35 16.52-10.1v-.14c0-9.41-6.13-10.3-15.13-10.3h-15.83c-6.28 0-7.25-1.63-7.25-4.5v-1.29c0-3.96 1.88-4.78 10.46-4.78h10.46c6.55 0 10.18.14 10.18 5.46v.34h5.58V46.4c0-4.91-1.88-8.73-15.41-8.73h-9.21c-14.78 0-18.06 3.14-18.06 8.8v2.04c0 6.62 3.14 9.28 11.58 9.28h18.48c7.18 0 8.16 1.84 8.16 5.18v.28c0 5.18-2.86 5.52-11.86 5.52h-12.83c-6.14 0-8.44-1.77-8.44-6.07V61h-5.58Zm53.35 0c0 10.44 8.3 10.44 17.15 10.44h11.02c7.32 0 16.53-.35 16.53-10.1v-.14c0-9.41-6.14-10.3-15.13-10.3H373.1c-6.28 0-7.26-1.63-7.26-4.5v-1.29c0-3.96 1.89-4.78 10.46-4.78h10.46c6.56 0 10.19.14 10.19 5.46v.34h5.57V46.4c0-4.91-1.88-8.73-15.41-8.73h-9.2c-14.79 0-18.06 3.14-18.06 8.8v2.04c0 6.62 3.14 9.28 11.57 9.28h18.48c7.18 0 8.16 1.84 8.16 5.18v.28c0 5.18-2.86 5.52-11.85 5.52h-12.83c-6.14 0-8.44-1.77-8.44-6.07V61h-5.58Zm53.48-3.68c0 11.46 8.3 14.12 19.67 14.12h8.58c11.36 0 19.66-2.66 19.66-14.12v-7.64c0-11.46-8.3-14.12-19.66-14.12h-8.58c-11.37 0-19.67 2.66-19.67 14.12Zm41.91-.34c0 8.11-4.88 9.68-11.85 9.68h-12.2c-6.98 0-11.86-1.57-11.86-9.68v-6.96c0-8.12 4.88-9.69 11.86-9.69h12.2c6.97 0 11.85 1.57 11.85 9.69Zm14.51.4c0 12.62 9.55 14.06 14.92 14.06h13.53c11.16 0 15.62-3.41 15.62-12.21v-1.03h-5.58v1.16c0 5.66-4.67 7.3-10.25 7.3h-10.11c-7.25 0-12.13-1.77-12.13-9.55v-7.3c0-8.66 5.3-9.48 10.94-9.48h11.02c6 0 9.9 1.37 9.9 7.16v.82h5.58v-.95c0-7.37-4.39-11.8-15.55-11.8h-10.04c-8.79 0-17.85 1.43-17.85 14.05ZM523.37 73h6V38.21h-6Zm0-42.97h6v-6.41h-6ZM578.25 73h6V49.67c0-10.37-7.53-12-18.69-12h-9.48c-10.74 0-14.86 2.59-14.86 8.93v1.71h6v-1.23c0-2.86 1.46-4.64 9-4.64H565c9.21 0 13.25.82 13.25 7.1v6.54h-.14c-2.09-3.34-4.88-4.16-12.69-4.16h-9.62c-10.46 0-16.18.96-16.18 8.87v2.32c0 6.55 2.37 10.44 11.44 10.44h14.36c9.21 0 11.09-.89 12.69-4.03h.14Zm0-9.34c0 4.36-4.18 5.11-15.06 5.11h-7.95c-8.23 0-9.62-1.64-9.62-5.52v-1.1c0-4.36 2.16-5.45 9.9-5.45h9.2c9.21 0 13.53.61 13.53 5.39Zm19.81-1.1c0 5.67 2.65 10.99 13.87 10.99h3.28c12.97 0 13.67-5.53 13.67-12.49v-3.82H624v2.6c0 7.29-1.26 8.93-9.21 8.93h-1.88c-6.56 0-8.86-1.98-8.86-8.46V42.99h23.78v-4.78h-23.78v-8.25h-5.99v8.25h-7.81v4.78h7.81Zm76.07-10.7h-33.54c.56-7.92 2.79-9.42 12.28-9.42h8.78c9.76 0 12.48 3.55 12.48 7.1Zm-39.53 7.43c0 12.82 8.92 14.26 16.73 14.26h10.88c11.16 0 17.92-2.39 17.92-10.37v-.68h-6c-.34 5.32-3.41 6.27-10.94 6.27h-8.23c-10.46 0-14.37-2.05-14.37-9.96v-2.18h39.54v-3.89c0-12.41-7.74-15.07-18.48-15.07h-9.62c-8.51 0-17.43 1.43-17.43 14.05Zm59.34-7.3c0-8.05 4.11-9.55 12.34-9.55h8.09c8.09 0 13.04 1.37 13.04 9.69v6.61c0 6.35-2.86 10.03-11.78 10.03h-9.77c-9.76 0-11.92-3.2-11.92-9.96Zm39.47-28.37h-6v19.23h-.14c-1.25-3.61-4.53-5.18-11.37-5.18h-9.13c-14.44 0-18.83 3.95-18.83 15.07v6.14c0 12.01 7.6 14.67 18.48 14.67h8.37c6.27 0 11.16-1.85 12.9-6.07h.14V73h5.58Z"/>
        </g>
    </g>
</svg>
